<?xml version="1.0" encoding="utf-8"?>
<!-- Generator: Adobe Illustrator 19.2.1, SVG Export Plug-In . SVG Version: 6.00 Build 0)  -->
<svg version="1.1" id="Layer_1" xmlns="http://www.w3.org/2000/svg" xmlns:xlink="http://www.w3.org/1999/xlink" x="0px" y="0px"
	 viewBox="0 0 290 188.1" style="enable-background:new 0 0 290 188.1;" xml:space="preserve">
<path d="M38.1,184.9L90,116V93.9c0,0-37.5-0.7-37.5-40.3C52.5,26.3,90,22.3,90,22.3h101.2c0,0,62.4,5.4,62.4,71.6
	s-56.8,72.5-60.3,72.5s-35.4,0-35.4,0V52.9l-30.7,15v117h66.5c0,0,93.4,0,93.4-91s-96.1-91-96.1-91H89.6c0,0-69.2-4.5-69.2,50.7
	c0,34.8,43.6,51.5,43.6,51.5L3,184.9H38.1z"/>
</svg>
